<?xml version="1.0" standalone="no"?>
<!DOCTYPE svg PUBLIC "-//W3C//DTD SVG 20010904//EN"
 "http://www.w3.org/TR/2001/REC-SVG-20010904/DTD/svg10.dtd">
<svg version="1.0" xmlns="http://www.w3.org/2000/svg"
 width="1052.000000pt" height="556.000000pt" viewBox="0 0 1052.000000 556.000000"
 preserveAspectRatio="xMidYMid meet">

<g transform="translate(0.000000,556.000000) scale(0.100000,-0.100000)"
fill="#000000" stroke="none">
<path d="M4600 4143 c-31 -21 -40 -33 -40 -56 0 -17 6 -18 53 -12 l52 6 -62
-30 c-165 -79 -316 -217 -400 -362 -31 -55 -63 -147 -79 -227 -24 -123 -35
-113 124 -111 l137 1 111 -375 c88 -300 108 -377 97 -382 -8 -3 -59 -5 -113
-5 l-98 0 -23 85 -22 85 -112 0 -112 0 -33 -85 -33 -85 -81 1 c-45 0 -89 3
-98 7 -14 6 -1 53 104 377 68 211 124 400 129 440 32 241 153 427 374 574 105
71 107 72 45 56 -29 -8 -57 -18 -63 -24 -5 -5 -15 -7 -21 -5 -16 6 -220 -65
-350 -122 -206 -90 -369 -198 -498 -331 -70 -72 -148 -177 -148 -200 0 -11 23
-13 113 -12 108 2 117 0 166 -26 29 -16 68 -43 88 -60 l36 -31 -78 -51 -77
-51 -52 14 c-28 8 -66 14 -84 14 -75 0 -149 -63 -172 -146 -12 -42 -11 -48 19
-109 64 -129 155 -149 282 -59 l46 32 74 -44 c41 -24 79 -46 84 -48 18 -9
-114 -123 -184 -160 -69 -36 -69 -36 -197 -36 -149 0 -192 14 -249 84 -61 75
-77 126 -84 271 l-6 130 -18 -34 c-16 -29 -18 -53 -15 -200 3 -156 5 -169 30
-224 31 -66 114 -152 156 -162 29 -6 29 -7 36 -97 3 -50 6 -115 6 -145 0 -29
4 -53 8 -53 5 0 7 -13 4 -29 -4 -27 -1 -30 34 -39 22 -6 154 -13 294 -16 246
-7 259 -6 373 18 66 14 121 27 124 29 2 3 -7 77 -21 164 -38 236 -49 320 -44
335 3 7 10 -25 17 -72 37 -257 65 -412 77 -417 12 -5 124 20 779 172 450 105
647 145 700 144 24 0 -25 -14 -125 -34 -279 -56 -801 -178 -1200 -280 -198
-52 -191 -50 -244 -59 l-39 -7 74 -76 c107 -109 382 -356 467 -420 152 -114
255 -147 457 -146 191 2 240 17 545 172 283 143 408 197 582 246 247 72 472
82 648 31 47 -13 86 -23 87 -22 1 1 -17 17 -40 34 -23 18 -180 148 -349 290
-259 216 -310 263 -322 297 -9 22 -27 146 -41 275 -14 129 -35 307 -47 395
l-23 160 -3 -77 -3 -78 -129 0 c-72 0 -130 -3 -130 -7 0 -5 59 -79 130 -166
l130 -159 0 -56 c0 -66 -22 -116 -63 -146 -26 -19 -44 -21 -248 -24 l-219 -3
0 100 0 101 28 0 29 0 -13 68 c-7 37 -13 74 -13 82 1 22 16 -27 29 -92 l11
-58 85 0 c46 0 84 2 84 5 0 12 -233 325 -238 320 -3 -3 -22 79 -43 182 -43
220 -63 278 -130 378 -77 114 -183 202 -344 282 -100 51 -294 114 -358 118
-69 4 -71 15 -3 15 66 0 85 20 47 52 -31 24 -136 25 -171 1z m211 -342 c20
-16 22 -23 13 -38 -29 -49 -147 -65 -186 -26 l-21 21 26 26 c14 14 32 26 39
26 8 0 6 -5 -4 -11 -43 -25 0 -65 57 -55 70 13 68 61 -3 69 -34 3 -33 4 9 5
33 2 54 -4 70 -17z m-847 -87 c26 -10 18 -41 -16 -67 -39 -29 -79 -40 -112
-31 -36 9 -39 30 -9 61 14 16 20 20 13 11 -33 -47 37 -67 86 -25 37 32 24 51
-29 44 -27 -4 -36 -2 -26 4 16 10 70 12 93 3z m985 -364 c242 -28 341 -192
240 -397 -16 -34 -41 -71 -55 -82 -29 -23 -97 -39 -201 -48 l-73 -6 0 -61 c0
-34 -3 -85 -6 -113 l-7 -53 -98 0 -99 0 0 378 c0 208 3 382 7 385 10 10 196 8
292 -3z m1198 -896 c-3 -3 -12 -4 -19 -1 -8 3 -5 6 6 6 11 1 17 -2 13 -5z"/>
<path d="M4879 3137 c-21 -36 -23 -54 -9 -91 33 -86 179 -32 148 55 -11 32
-34 48 -86 60 -30 7 -35 4 -53 -24z"/>
<path d="M4820 4076 c0 -3 30 -14 68 -27 296 -98 497 -250 598 -454 38 -76 51
-119 79 -256 19 -95 33 -148 34 -126 1 57 25 92 78 118 45 22 62 24 246 27
123 2 197 7 197 13 0 26 -54 121 -104 181 -55 66 -145 147 -216 194 -30 20
-41 22 -68 15 -71 -21 -170 47 -115 78 10 5 15 12 12 16 -4 3 -63 30 -133 60
-137 60 -287 106 -406 124 -41 7 -97 16 -125 21 -66 12 -145 21 -145 16z"/>
<path d="M5634 3828 c-10 -17 33 -48 67 -48 40 0 36 12 -10 38 -45 25 -47 26
-57 10z"/>
<path d="M1456 3188 c-3 -29 -8 -207 -12 -395 l-6 -343 111 0 111 0 0 70 0 70
-77 0 -76 0 6 325 7 325 -29 0 c-28 0 -30 -2 -35 -52z"/>
<path d="M1978 3148 c-4 -95 4 -131 36 -157 14 -12 16 0 16 118 l0 131 -24 0
c-23 0 -24 -3 -28 -92z"/>
<path d="M6810 3221 c0 -45 -9 -51 -79 -51 -36 0 -76 -3 -88 -6 l-23 -6 0
-278 0 -277 -61 -7 c-34 -3 -86 -6 -115 -6 l-54 0 0 -70 0 -71 128 3 127 3 -4
286 -4 286 33 6 c18 4 61 7 96 7 l64 0 0 39 c0 21 3 66 6 100 6 52 5 61 -10
61 -9 0 -16 -8 -16 -19z"/>
<path d="M8928 3203 l-3 -38 -140 -8 c-77 -5 -140 -9 -141 -10 -1 -1 -4 -20
-6 -42 l-3 -40 142 -10 c78 -5 145 -13 149 -17 4 -5 18 -8 31 -8 23 0 23 2 23
105 0 105 0 105 -24 105 -21 0 -25 -5 -28 -37z"/>
<path d="M7906 3168 c-19 -27 -20 -67 -2 -90 10 -13 27 -18 65 -18 46 0 53 3
61 26 6 14 10 34 10 45 0 55 -102 83 -134 37z"/>
<path d="M8291 3101 c2 -59 -2 -77 -18 -99 -19 -26 -71 -66 -95 -74 -12 -4 57
-128 70 -128 11 1 44 31 74 68 27 33 28 34 21 140 -5 93 -9 111 -30 136 l-24
29 2 -72z"/>
<path d="M6278 3152 l-78 -3 0 -64 0 -65 90 0 91 0 -3 67 c-2 36 -7 67 -13 68
-5 0 -45 -1 -87 -3z"/>
<path d="M2654 3132 c-75 -41 -112 -94 -114 -160 0 -22 1 -22 41 8 96 69 186
43 244 -69 l23 -46 21 45 c27 59 26 76 -5 138 -46 92 -133 127 -210 84z"/>
<path d="M7149 3121 c-76 -42 -108 -107 -95 -194 10 -63 24 -80 32 -39 4 21
21 45 47 67 76 65 148 70 212 13 l35 -30 0 36 c0 48 -32 109 -71 137 -44 31
-113 35 -160 10z"/>
<path d="M4196 3050 c-38 -89 -37 -90 39 -90 59 0 65 2 65 20 0 27 -32 90 -58
113 -19 17 -20 16 -46 -43z"/>
<path d="M2305 2983 c-9 -21 -21 -67 -27 -104 -11 -62 -10 -69 16 -135 50
-126 103 -197 189 -255 l59 -39 157 0 157 0 47 33 c81 58 133 138 163 252 19
71 17 76 -12 25 -33 -56 -99 -126 -139 -148 -23 -12 -62 -16 -175 -16 -142 -1
-146 0 -194 28 -73 43 -130 109 -178 205 -35 71 -43 95 -42 139 1 28 0 52 -2
52 -2 0 -11 -17 -19 -37z"/>
<path d="M1720 2913 l0 -96 132 -184 131 -183 114 0 114 0 -3 68 -3 67 -82 3
-82 3 -152 209 c-83 116 -156 210 -160 210 -5 0 -9 -43 -9 -97z"/>
<path d="M7600 2959 c0 -46 -25 -140 -50 -190 -29 -55 -85 -115 -138 -147 -44
-25 -52 -26 -193 -26 l-148 0 -56 38 c-67 47 -105 93 -145 177 l-30 64 0 -48
c0 -113 96 -280 203 -352 l52 -35 150 0 c147 0 151 1 201 29 87 50 148 138
179 258 19 71 19 133 1 202 -18 66 -26 75 -26 30z"/>
<path d="M8930 2911 c0 -17 -11 -19 -122 -26 -160 -8 -158 -8 -158 -55 l0 -38
130 -7 c90 -5 135 -12 145 -21 7 -8 23 -14 34 -14 20 0 21 6 21 90 0 89 0 90
-25 90 -18 0 -25 -5 -25 -19z"/>
<path d="M7920 2730 l0 -129 -32 -6 c-18 -3 -64 -6 -103 -8 l-70 -2 -3 -67 -3
-68 125 0 125 0 3 136 3 136 108 -136 109 -136 119 0 c65 0 119 3 118 8 0 4
-17 34 -38 67 l-38 60 -101 6 c-56 3 -106 9 -111 15 -4 5 -52 64 -106 132 -53
67 -99 122 -101 122 -2 0 -4 -58 -4 -130z"/>
<path d="M8930 2619 l0 -30 -207 4 c-115 2 -218 7 -231 11 -23 8 -23 8 -20
-55 4 -92 7 -93 286 -97 l222 -3 0 100 0 101 -25 0 c-21 0 -25 -5 -25 -31z"/>
<path d="M4010 2053 c-8 -2 -21 -7 -29 -9 -17 -6 115 -143 334 -347 321 -299
526 -407 775 -407 178 0 337 54 725 247 391 194 550 243 785 243 102 0 154 -4
212 -19 67 -17 178 -64 178 -76 0 -2 -31 7 -69 20 -38 14 -96 27 -128 31 l-58
6 25 -21 c52 -42 169 -94 223 -99 49 -4 56 -2 75 23 33 41 29 90 -8 125 -34
32 -153 81 -245 101 -77 17 -322 17 -400 0 -248 -53 -413 -116 -725 -274 -129
-66 -262 -130 -296 -143 -190 -71 -482 -59 -644 27 -96 51 -404 315 -595 508
-69 70 -89 80 -135 64z"/>
</g>
</svg>
